{
	"patcher" : 	{
		"fileversion" : 1,
		"appversion" : 		{
			"major" : 5,
			"minor" : 1,
			"revision" : 9
		}
,
		"rect" : [ -8.0, 50.0, 1920.0, 972.0 ],
		"bglocked" : 0,
		"defrect" : [ -8.0, 50.0, 1920.0, 972.0 ],
		"openrect" : [ 0.0, 0.0, 0.0, 0.0 ],
		"openinpresentation" : 0,
		"default_fontsize" : 12.0,
		"default_fontface" : 0,
		"default_fontname" : "Arial",
		"gridonopen" : 0,
		"gridsize" : [ 15.0, 15.0 ],
		"gridsnaponopen" : 0,
		"toolbarvisible" : 1,
		"boxanimatetime" : 200,
		"imprint" : 0,
		"enablehscroll" : 1,
		"enablevscroll" : 1,
		"devicewidth" : 0.0,
		"boxes" : [ 			{
				"box" : 				{
					"maxclass" : "newobj",
					"text" : "t b l",
					"patching_rect" : [ 56.0, 224.0, 100.0, 20.0 ],
					"fontname" : "Arial",
					"numinlets" : 1,
					"id" : "obj-102",
					"numoutlets" : 2,
					"fontsize" : 12.0,
					"outlettype" : [ "bang", "" ]
				}

			}
, 			{
				"box" : 				{
					"maxclass" : "newobj",
					"text" : "t b i",
					"patching_rect" : [ 125.0, 284.0, 32.5, 20.0 ],
					"fontname" : "Arial",
					"numinlets" : 1,
					"id" : "obj-98",
					"numoutlets" : 2,
					"fontsize" : 12.0,
					"outlettype" : [ "bang", "int" ]
				}

			}
, 			{
				"box" : 				{
					"maxclass" : "newobj",
					"text" : "accum",
					"patching_rect" : [ 125.0, 315.0, 47.0, 20.0 ],
					"fontname" : "Arial",
					"numinlets" : 3,
					"id" : "obj-99",
					"numoutlets" : 1,
					"fontsize" : 12.0,
					"outlettype" : [ "int" ]
				}

			}
, 			{
				"box" : 				{
					"maxclass" : "newobj",
					"text" : "zl group 256",
					"patching_rect" : [ 125.0, 358.0, 77.0, 20.0 ],
					"fontname" : "Arial",
					"numinlets" : 2,
					"id" : "obj-100",
					"numoutlets" : 2,
					"fontsize" : 12.0,
					"outlettype" : [ "", "" ]
				}

			}
, 			{
				"box" : 				{
					"maxclass" : "newobj",
					"text" : "iter",
					"patching_rect" : [ 125.0, 258.0, 27.0, 20.0 ],
					"fontname" : "Arial",
					"numinlets" : 1,
					"id" : "obj-101",
					"numoutlets" : 1,
					"fontsize" : 12.0,
					"outlettype" : [ "" ]
				}

			}
, 			{
				"box" : 				{
					"maxclass" : "newobj",
					"text" : "zl rev",
					"patching_rect" : [ 126.0, 402.0, 37.0, 20.0 ],
					"fontname" : "Arial",
					"numinlets" : 2,
					"id" : "obj-97",
					"numoutlets" : 2,
					"fontsize" : 12.0,
					"outlettype" : [ "", "" ]
				}

			}
, 			{
				"box" : 				{
					"maxclass" : "message",
					"text" : "set 1",
					"patching_rect" : [ 156.0, 126.0, 37.0, 18.0 ],
					"fontname" : "Arial",
					"numinlets" : 2,
					"id" : "obj-87",
					"numoutlets" : 1,
					"fontsize" : 12.0,
					"outlettype" : [ "" ]
				}

			}
, 			{
				"box" : 				{
					"maxclass" : "comment",
					"text" : "iterate through all the factors",
					"linecount" : 3,
					"patching_rect" : [ 50.0, 144.0, 79.0, 48.0 ],
					"fontname" : "Arial",
					"numinlets" : 1,
					"id" : "obj-88",
					"numoutlets" : 0,
					"fontsize" : 12.0
				}

			}
, 			{
				"box" : 				{
					"maxclass" : "newobj",
					"text" : "t l b zlclear",
					"patching_rect" : [ 124.0, 100.0, 83.0, 20.0 ],
					"fontname" : "Arial",
					"numinlets" : 1,
					"id" : "obj-89",
					"numoutlets" : 3,
					"fontsize" : 12.0,
					"outlettype" : [ "", "bang", "zlclear" ]
				}

			}
, 			{
				"box" : 				{
					"maxclass" : "newobj",
					"text" : "zl rot -1",
					"patching_rect" : [ 124.0, 161.0, 63.0, 20.0 ],
					"fontname" : "Arial",
					"numinlets" : 2,
					"id" : "obj-90",
					"numoutlets" : 2,
					"fontsize" : 12.0,
					"outlettype" : [ "", "" ]
				}

			}
, 			{
				"box" : 				{
					"maxclass" : "newobj",
					"text" : "zl ecils 1",
					"patching_rect" : [ 124.0, 198.0, 100.0, 20.0 ],
					"fontname" : "Arial",
					"numinlets" : 2,
					"id" : "obj-91",
					"numoutlets" : 2,
					"fontsize" : 12.0,
					"outlettype" : [ "", "" ]
				}

			}
, 			{
				"box" : 				{
					"maxclass" : "newobj",
					"text" : "vexpr -1*($i1-$i2) @scalarmode 1",
					"patching_rect" : [ 127.0, 985.0, 194.0, 20.0 ],
					"fontname" : "Arial",
					"numinlets" : 2,
					"id" : "obj-86",
					"numoutlets" : 1,
					"fontsize" : 12.0,
					"outlettype" : [ "" ]
				}

			}
, 			{
				"box" : 				{
					"maxclass" : "newobj",
					"text" : "maximum",
					"patching_rect" : [ 302.0, 936.0, 100.0, 20.0 ],
					"fontname" : "Arial",
					"numinlets" : 2,
					"id" : "obj-84",
					"numoutlets" : 2,
					"fontsize" : 12.0,
					"outlettype" : [ "int", "int" ]
				}

			}
, 			{
				"box" : 				{
					"maxclass" : "newobj",
					"text" : "zl rot 1",
					"patching_rect" : [ 127.0, 872.0, 45.0, 20.0 ],
					"fontname" : "Arial",
					"numinlets" : 2,
					"id" : "obj-83",
					"numoutlets" : 2,
					"fontsize" : 12.0,
					"outlettype" : [ "", "" ]
				}

			}
, 			{
				"box" : 				{
					"maxclass" : "newobj",
					"text" : "zl group 256",
					"patching_rect" : [ 460.0, 643.0, 77.0, 20.0 ],
					"fontname" : "Arial",
					"numinlets" : 2,
					"id" : "obj-78",
					"numoutlets" : 2,
					"fontsize" : 12.0,
					"outlettype" : [ "", "" ]
				}

			}
, 			{
				"box" : 				{
					"maxclass" : "newobj",
					"text" : "uzi",
					"patching_rect" : [ 435.0, 607.0, 44.0, 20.0 ],
					"fontname" : "Arial",
					"numinlets" : 2,
					"id" : "obj-79",
					"numoutlets" : 3,
					"fontsize" : 12.0,
					"outlettype" : [ "bang", "bang", "int" ]
				}

			}
, 			{
				"box" : 				{
					"maxclass" : "newobj",
					"text" : "t b l",
					"patching_rect" : [ 127.0, 458.0, 100.0, 20.0 ],
					"fontname" : "Arial",
					"numinlets" : 1,
					"id" : "obj-76",
					"numoutlets" : 2,
					"fontsize" : 12.0,
					"outlettype" : [ "bang", "" ]
				}

			}
, 			{
				"box" : 				{
					"maxclass" : "newobj",
					"text" : "zl reg",
					"patching_rect" : [ 127.0, 846.0, 100.0, 20.0 ],
					"fontname" : "Arial",
					"numinlets" : 2,
					"id" : "obj-75",
					"numoutlets" : 2,
					"fontsize" : 12.0,
					"outlettype" : [ "", "" ]
				}

			}
, 			{
				"box" : 				{
					"maxclass" : "newobj",
					"text" : "pack",
					"patching_rect" : [ 365.0, 718.0, 100.0, 20.0 ],
					"fontname" : "Arial",
					"numinlets" : 2,
					"id" : "obj-74",
					"numoutlets" : 1,
					"fontsize" : 12.0,
					"outlettype" : [ "" ]
				}

			}
, 			{
				"box" : 				{
					"maxclass" : "newobj",
					"text" : "zl rev",
					"patching_rect" : [ 208.0, 511.0, 37.0, 20.0 ],
					"fontname" : "Arial",
					"numinlets" : 2,
					"id" : "obj-73",
					"numoutlets" : 2,
					"fontsize" : 12.0,
					"outlettype" : [ "", "" ]
				}

			}
, 			{
				"box" : 				{
					"maxclass" : "newobj",
					"text" : "unpack",
					"patching_rect" : [ 208.0, 539.0, 181.0, 20.0 ],
					"fontname" : "Arial",
					"numinlets" : 1,
					"id" : "obj-72",
					"numoutlets" : 2,
					"fontsize" : 12.0,
					"outlettype" : [ "int", "int" ]
				}

			}
, 			{
				"box" : 				{
					"maxclass" : "newobj",
					"text" : "zl nth",
					"patching_rect" : [ 208.0, 810.0, 177.0, 20.0 ],
					"fontname" : "Arial",
					"numinlets" : 2,
					"id" : "obj-71",
					"numoutlets" : 2,
					"fontsize" : 12.0,
					"outlettype" : [ "", "" ]
				}

			}
, 			{
				"box" : 				{
					"maxclass" : "newobj",
					"text" : "zl reg",
					"patching_rect" : [ 208.0, 773.0, 100.0, 20.0 ],
					"fontname" : "Arial",
					"numinlets" : 2,
					"id" : "obj-70",
					"numoutlets" : 2,
					"fontsize" : 12.0,
					"outlettype" : [ "", "" ]
				}

			}
, 			{
				"box" : 				{
					"maxclass" : "newobj",
					"text" : "sel 0",
					"patching_rect" : [ 208.0, 742.0, 37.0, 20.0 ],
					"fontname" : "Arial",
					"numinlets" : 2,
					"id" : "obj-66",
					"numoutlets" : 2,
					"fontsize" : 12.0,
					"outlettype" : [ "bang", "" ]
				}

			}
, 			{
				"box" : 				{
					"maxclass" : "newobj",
					"text" : "%",
					"patching_rect" : [ 208.0, 718.0, 44.0, 20.0 ],
					"fontname" : "Arial",
					"numinlets" : 2,
					"id" : "obj-69",
					"numoutlets" : 1,
					"fontsize" : 12.0,
					"outlettype" : [ "int" ]
				}

			}
, 			{
				"box" : 				{
					"maxclass" : "newobj",
					"text" : "/",
					"patching_rect" : [ 281.0, 627.0, 54.5, 20.0 ],
					"fontname" : "Arial",
					"numinlets" : 2,
					"id" : "obj-64",
					"numoutlets" : 1,
					"fontsize" : 12.0,
					"outlettype" : [ "int" ]
				}

			}
, 			{
				"box" : 				{
					"maxclass" : "newobj",
					"text" : "16",
					"patching_rect" : [ 208.0, 594.0, 78.0, 20.0 ],
					"fontname" : "Arial",
					"numinlets" : 2,
					"id" : "obj-63",
					"numoutlets" : 1,
					"fontsize" : 12.0,
					"outlettype" : [ "int" ]
				}

			}
, 			{
				"box" : 				{
					"maxclass" : "newobj",
					"text" : "t b i",
					"patching_rect" : [ 208.0, 562.0, 100.0, 20.0 ],
					"fontname" : "Arial",
					"numinlets" : 1,
					"id" : "obj-61",
					"numoutlets" : 2,
					"fontsize" : 12.0,
					"outlettype" : [ "bang", "int" ]
				}

			}
, 			{
				"box" : 				{
					"maxclass" : "newobj",
					"text" : "listfunnel 0",
					"patching_rect" : [ 208.0, 483.0, 70.0, 20.0 ],
					"fontname" : "Arial",
					"numinlets" : 1,
					"id" : "obj-58",
					"numoutlets" : 1,
					"fontsize" : 12.0,
					"outlettype" : [ "list" ]
				}

			}
, 			{
				"box" : 				{
					"maxclass" : "newobj",
					"text" : "uzi 16",
					"patching_rect" : [ 208.0, 634.0, 46.0, 20.0 ],
					"fontname" : "Arial",
					"numinlets" : 2,
					"id" : "obj-56",
					"numoutlets" : 3,
					"fontsize" : 12.0,
					"outlettype" : [ "bang", "bang", "int" ]
				}

			}
, 			{
				"box" : 				{
					"maxclass" : "inlet",
					"patching_rect" : [ 124.0, 40.0, 25.0, 25.0 ],
					"numinlets" : 0,
					"id" : "obj-5",
					"numoutlets" : 1,
					"outlettype" : [ "" ],
					"comment" : ""
				}

			}
, 			{
				"box" : 				{
					"maxclass" : "outlet",
					"patching_rect" : [ 127.0, 1026.0, 25.0, 25.0 ],
					"numinlets" : 1,
					"id" : "obj-10",
					"numoutlets" : 0,
					"comment" : ""
				}

			}
 ],
		"lines" : [ 			{
				"patchline" : 				{
					"source" : [ "obj-86", 0 ],
					"destination" : [ "obj-10", 0 ],
					"hidden" : 0,
					"midpoints" : [  ]
				}

			}
, 			{
				"patchline" : 				{
					"source" : [ "obj-5", 0 ],
					"destination" : [ "obj-89", 0 ],
					"hidden" : 0,
					"midpoints" : [  ]
				}

			}
, 			{
				"patchline" : 				{
					"source" : [ "obj-69", 0 ],
					"destination" : [ "obj-66", 0 ],
					"hidden" : 0,
					"midpoints" : [  ]
				}

			}
, 			{
				"patchline" : 				{
					"source" : [ "obj-66", 0 ],
					"destination" : [ "obj-70", 0 ],
					"hidden" : 0,
					"midpoints" : [  ]
				}

			}
, 			{
				"patchline" : 				{
					"source" : [ "obj-73", 0 ],
					"destination" : [ "obj-72", 0 ],
					"hidden" : 0,
					"midpoints" : [  ]
				}

			}
, 			{
				"patchline" : 				{
					"source" : [ "obj-56", 2 ],
					"destination" : [ "obj-74", 0 ],
					"hidden" : 0,
					"midpoints" : [  ]
				}

			}
, 			{
				"patchline" : 				{
					"source" : [ "obj-72", 1 ],
					"destination" : [ "obj-74", 1 ],
					"hidden" : 0,
					"midpoints" : [  ]
				}

			}
, 			{
				"patchline" : 				{
					"source" : [ "obj-74", 0 ],
					"destination" : [ "obj-71", 1 ],
					"hidden" : 0,
					"midpoints" : [  ]
				}

			}
, 			{
				"patchline" : 				{
					"source" : [ "obj-70", 0 ],
					"destination" : [ "obj-71", 0 ],
					"hidden" : 0,
					"midpoints" : [  ]
				}

			}
, 			{
				"patchline" : 				{
					"source" : [ "obj-76", 0 ],
					"destination" : [ "obj-75", 0 ],
					"hidden" : 0,
					"midpoints" : [  ]
				}

			}
, 			{
				"patchline" : 				{
					"source" : [ "obj-79", 1 ],
					"destination" : [ "obj-78", 0 ],
					"hidden" : 0,
					"midpoints" : [  ]
				}

			}
, 			{
				"patchline" : 				{
					"source" : [ "obj-79", 2 ],
					"destination" : [ "obj-78", 0 ],
					"hidden" : 0,
					"midpoints" : [  ]
				}

			}
, 			{
				"patchline" : 				{
					"source" : [ "obj-78", 0 ],
					"destination" : [ "obj-70", 1 ],
					"hidden" : 0,
					"midpoints" : [  ]
				}

			}
, 			{
				"patchline" : 				{
					"source" : [ "obj-71", 1 ],
					"destination" : [ "obj-70", 1 ],
					"hidden" : 0,
					"midpoints" : [  ]
				}

			}
, 			{
				"patchline" : 				{
					"source" : [ "obj-71", 1 ],
					"destination" : [ "obj-75", 1 ],
					"hidden" : 0,
					"midpoints" : [  ]
				}

			}
, 			{
				"patchline" : 				{
					"source" : [ "obj-72", 0 ],
					"destination" : [ "obj-61", 0 ],
					"hidden" : 0,
					"midpoints" : [  ]
				}

			}
, 			{
				"patchline" : 				{
					"source" : [ "obj-61", 1 ],
					"destination" : [ "obj-64", 1 ],
					"hidden" : 0,
					"midpoints" : [  ]
				}

			}
, 			{
				"patchline" : 				{
					"source" : [ "obj-64", 0 ],
					"destination" : [ "obj-69", 1 ],
					"hidden" : 0,
					"midpoints" : [  ]
				}

			}
, 			{
				"patchline" : 				{
					"source" : [ "obj-56", 2 ],
					"destination" : [ "obj-69", 0 ],
					"hidden" : 0,
					"midpoints" : [  ]
				}

			}
, 			{
				"patchline" : 				{
					"source" : [ "obj-58", 0 ],
					"destination" : [ "obj-73", 0 ],
					"hidden" : 0,
					"midpoints" : [  ]
				}

			}
, 			{
				"patchline" : 				{
					"source" : [ "obj-76", 1 ],
					"destination" : [ "obj-58", 0 ],
					"hidden" : 0,
					"midpoints" : [  ]
				}

			}
, 			{
				"patchline" : 				{
					"source" : [ "obj-75", 0 ],
					"destination" : [ "obj-83", 0 ],
					"hidden" : 0,
					"midpoints" : [  ]
				}

			}
, 			{
				"patchline" : 				{
					"source" : [ "obj-83", 0 ],
					"destination" : [ "obj-84", 0 ],
					"hidden" : 0,
					"midpoints" : [  ]
				}

			}
, 			{
				"patchline" : 				{
					"source" : [ "obj-83", 0 ],
					"destination" : [ "obj-86", 0 ],
					"hidden" : 0,
					"midpoints" : [  ]
				}

			}
, 			{
				"patchline" : 				{
					"source" : [ "obj-84", 0 ],
					"destination" : [ "obj-86", 1 ],
					"hidden" : 0,
					"midpoints" : [  ]
				}

			}
, 			{
				"patchline" : 				{
					"source" : [ "obj-89", 1 ],
					"destination" : [ "obj-87", 0 ],
					"hidden" : 0,
					"midpoints" : [  ]
				}

			}
, 			{
				"patchline" : 				{
					"source" : [ "obj-89", 0 ],
					"destination" : [ "obj-90", 0 ],
					"hidden" : 0,
					"midpoints" : [  ]
				}

			}
, 			{
				"patchline" : 				{
					"source" : [ "obj-90", 0 ],
					"destination" : [ "obj-91", 0 ],
					"hidden" : 0,
					"midpoints" : [  ]
				}

			}
, 			{
				"patchline" : 				{
					"source" : [ "obj-91", 1 ],
					"destination" : [ "obj-79", 0 ],
					"hidden" : 0,
					"midpoints" : [  ]
				}

			}
, 			{
				"patchline" : 				{
					"source" : [ "obj-63", 0 ],
					"destination" : [ "obj-64", 0 ],
					"hidden" : 0,
					"midpoints" : [  ]
				}

			}
, 			{
				"patchline" : 				{
					"source" : [ "obj-61", 0 ],
					"destination" : [ "obj-63", 0 ],
					"hidden" : 0,
					"midpoints" : [  ]
				}

			}
, 			{
				"patchline" : 				{
					"source" : [ "obj-63", 0 ],
					"destination" : [ "obj-56", 0 ],
					"hidden" : 0,
					"midpoints" : [  ]
				}

			}
, 			{
				"patchline" : 				{
					"source" : [ "obj-91", 1 ],
					"destination" : [ "obj-63", 1 ],
					"hidden" : 0,
					"midpoints" : [  ]
				}

			}
, 			{
				"patchline" : 				{
					"source" : [ "obj-99", 0 ],
					"destination" : [ "obj-100", 0 ],
					"hidden" : 0,
					"midpoints" : [  ]
				}

			}
, 			{
				"patchline" : 				{
					"source" : [ "obj-98", 0 ],
					"destination" : [ "obj-99", 0 ],
					"hidden" : 0,
					"midpoints" : [  ]
				}

			}
, 			{
				"patchline" : 				{
					"source" : [ "obj-98", 1 ],
					"destination" : [ "obj-99", 2 ],
					"hidden" : 0,
					"midpoints" : [  ]
				}

			}
, 			{
				"patchline" : 				{
					"source" : [ "obj-101", 0 ],
					"destination" : [ "obj-98", 0 ],
					"hidden" : 0,
					"midpoints" : [  ]
				}

			}
, 			{
				"patchline" : 				{
					"source" : [ "obj-87", 0 ],
					"destination" : [ "obj-99", 0 ],
					"hidden" : 0,
					"midpoints" : [ 165.5, 307.0, 134.5, 307.0 ]
				}

			}
, 			{
				"patchline" : 				{
					"source" : [ "obj-89", 2 ],
					"destination" : [ "obj-78", 0 ],
					"hidden" : 0,
					"midpoints" : [  ]
				}

			}
, 			{
				"patchline" : 				{
					"source" : [ "obj-89", 2 ],
					"destination" : [ "obj-100", 0 ],
					"hidden" : 0,
					"midpoints" : [  ]
				}

			}
, 			{
				"patchline" : 				{
					"source" : [ "obj-100", 0 ],
					"destination" : [ "obj-97", 0 ],
					"hidden" : 0,
					"midpoints" : [  ]
				}

			}
, 			{
				"patchline" : 				{
					"source" : [ "obj-91", 0 ],
					"destination" : [ "obj-102", 0 ],
					"hidden" : 0,
					"midpoints" : [  ]
				}

			}
, 			{
				"patchline" : 				{
					"source" : [ "obj-102", 1 ],
					"destination" : [ "obj-101", 0 ],
					"hidden" : 0,
					"midpoints" : [  ]
				}

			}
, 			{
				"patchline" : 				{
					"source" : [ "obj-102", 0 ],
					"destination" : [ "obj-100", 0 ],
					"hidden" : 0,
					"midpoints" : [  ]
				}

			}
, 			{
				"patchline" : 				{
					"source" : [ "obj-97", 0 ],
					"destination" : [ "obj-76", 0 ],
					"hidden" : 0,
					"midpoints" : [  ]
				}

			}
 ]
	}

}
