{
	"patcher" : 	{
		"fileversion" : 1,
		"rect" : [ 271.0, 378.0, 535.0, 591.0 ],
		"bglocked" : 0,
		"defrect" : [ 271.0, 378.0, 535.0, 591.0 ],
		"openrect" : [ 0.0, 0.0, 0.0, 0.0 ],
		"openinpresentation" : 0,
		"default_fontsize" : 12.0,
		"default_fontface" : 0,
		"default_fontname" : "Arial",
		"gridonopen" : 0,
		"gridsize" : [ 15.0, 15.0 ],
		"gridsnaponopen" : 0,
		"toolbarvisible" : 1,
		"boxanimatetime" : 200,
		"imprint" : 0,
		"enablehscroll" : 1,
		"enablevscroll" : 1,
		"devicewidth" : 0.0,
		"boxes" : [ 			{
				"box" : 				{
					"maxclass" : "newobj",
					"text" : "prepend set",
					"id" : "obj-1",
					"fontsize" : 12.0,
					"patching_rect" : [ 173.0, 171.0, 76.0, 20.0 ],
					"numinlets" : 1,
					"numoutlets" : 1,
					"fontname" : "Arial",
					"outlettype" : [ "" ]
				}

			}
, 			{
				"box" : 				{
					"maxclass" : "newobj",
					"text" : "translate @in notevalues @out ticks",
					"id" : "obj-19",
					"fontsize" : 12.0,
					"patching_rect" : [ 295.5, 113.0, 206.0, 20.0 ],
					"numinlets" : 1,
					"numoutlets" : 1,
					"fontname" : "Arial",
					"outlettype" : [ "" ]
				}

			}
, 			{
				"box" : 				{
					"maxclass" : "newobj",
					"varname" : "Fill up umenu and select stratification",
					"text" : "p \"Fill up umenu and select stratification\"",
					"id" : "obj-50",
					"fontsize" : 12.0,
					"patching_rect" : [ 50.0, 138.0, 265.0, 20.0 ],
					"numinlets" : 2,
					"numoutlets" : 3,
					"fontname" : "Arial",
					"outlettype" : [ "", "int", "" ],
					"patcher" : 					{
						"fileversion" : 1,
						"rect" : [ 925.0, 139.0, 951.0, 871.0 ],
						"bglocked" : 0,
						"defrect" : [ 925.0, 139.0, 951.0, 871.0 ],
						"openrect" : [ 0.0, 0.0, 0.0, 0.0 ],
						"openinpresentation" : 0,
						"default_fontsize" : 10.0,
						"default_fontface" : 0,
						"default_fontname" : "Arial",
						"gridonopen" : 0,
						"gridsize" : [ 15.0, 15.0 ],
						"gridsnaponopen" : 0,
						"toolbarvisible" : 1,
						"boxanimatetime" : 200,
						"imprint" : 0,
						"enablehscroll" : 1,
						"enablevscroll" : 1,
						"devicewidth" : 0.0,
						"boxes" : [ 							{
								"box" : 								{
									"maxclass" : "message",
									"text" : "1nd, 1n, 1nt, 2nd, 2n, 2nt, 4nd, 4n, 4nt, 8nd, 8n, 8nt, 16nd, 16n, 16nt, 32nd, 32n, 32nt, 64nd, 64n, 128n",
									"linecount" : 3,
									"id" : "obj-20",
									"fontsize" : 12.0,
									"patching_rect" : [ 697.0, 161.0, 232.0, 46.0 ],
									"numinlets" : 2,
									"numoutlets" : 1,
									"fontname" : "Arial",
									"outlettype" : [ "" ]
								}

							}
, 							{
								"box" : 								{
									"maxclass" : "newobj",
									"text" : "zl mth",
									"id" : "obj-24",
									"fontsize" : 10.0,
									"patching_rect" : [ 50.0, 720.0, 100.0, 18.0 ],
									"numinlets" : 2,
									"numoutlets" : 2,
									"fontname" : "Arial",
									"outlettype" : [ "", "" ]
								}

							}
, 							{
								"box" : 								{
									"maxclass" : "outlet",
									"id" : "obj-22",
									"patching_rect" : [ 50.0, 789.0, 25.0, 25.0 ],
									"numinlets" : 1,
									"numoutlets" : 0,
									"comment" : ""
								}

							}
, 							{
								"box" : 								{
									"maxclass" : "comment",
									"text" : "0 based index of minimun",
									"id" : "obj-21",
									"fontsize" : 10.0,
									"patching_rect" : [ 204.0, 693.0, 133.0, 18.0 ],
									"numinlets" : 1,
									"numoutlets" : 0,
									"fontname" : "Arial"
								}

							}
, 							{
								"box" : 								{
									"maxclass" : "newobj",
									"text" : "zl group 256",
									"id" : "obj-14",
									"fontsize" : 10.0,
									"patching_rect" : [ 50.0, 568.0, 76.0, 18.0 ],
									"numinlets" : 2,
									"numoutlets" : 2,
									"fontname" : "Arial",
									"outlettype" : [ "", "" ]
								}

							}
, 							{
								"box" : 								{
									"maxclass" : "outlet",
									"id" : "obj-3",
									"patching_rect" : [ 185.666656, 772.5, 25.0, 25.0 ],
									"numinlets" : 1,
									"numoutlets" : 0,
									"comment" : ""
								}

							}
, 							{
								"box" : 								{
									"maxclass" : "newobj",
									"text" : "int",
									"id" : "obj-13",
									"fontsize" : 10.0,
									"patching_rect" : [ 357.0, 399.0, 32.5, 18.0 ],
									"numinlets" : 2,
									"numoutlets" : 1,
									"fontname" : "Arial",
									"outlettype" : [ "int" ]
								}

							}
, 							{
								"box" : 								{
									"maxclass" : "newobj",
									"text" : "== 0.",
									"id" : "obj-1",
									"fontsize" : 10.0,
									"patching_rect" : [ 342.0, 425.0, 34.0, 18.0 ],
									"numinlets" : 2,
									"numoutlets" : 1,
									"fontname" : "Arial",
									"outlettype" : [ "int" ]
								}

							}
, 							{
								"box" : 								{
									"maxclass" : "newobj",
									"text" : "loadmess 1n",
									"id" : "obj-31",
									"fontsize" : 10.0,
									"patching_rect" : [ 501.0, 285.0, 69.0, 18.0 ],
									"numinlets" : 1,
									"numoutlets" : 1,
									"fontname" : "Arial",
									"outlettype" : [ "" ]
								}

							}
, 							{
								"box" : 								{
									"maxclass" : "newobj",
									"text" : "translate @in notevalues @out ticks",
									"linecount" : 2,
									"id" : "obj-26",
									"fontsize" : 12.0,
									"patching_rect" : [ 500.5, 311.0, 132.0, 34.0 ],
									"numinlets" : 1,
									"numoutlets" : 1,
									"fontname" : "Arial",
									"outlettype" : [ "" ]
								}

							}
, 							{
								"box" : 								{
									"maxclass" : "message",
									"text" : "2nd",
									"id" : "obj-23",
									"fontsize" : 10.0,
									"patching_rect" : [ 248.0, 165.0, 50.0, 16.0 ],
									"numinlets" : 2,
									"numoutlets" : 1,
									"fontname" : "Arial",
									"outlettype" : [ "" ]
								}

							}
, 							{
								"box" : 								{
									"maxclass" : "newobj",
									"text" : "translate @in notevalues @out ticks",
									"linecount" : 2,
									"id" : "obj-19",
									"fontsize" : 12.0,
									"patching_rect" : [ 425.5, 246.0, 131.0, 34.0 ],
									"numinlets" : 1,
									"numoutlets" : 1,
									"fontname" : "Arial",
									"outlettype" : [ "" ]
								}

							}
, 							{
								"box" : 								{
									"maxclass" : "newobj",
									"text" : "minimum 0.",
									"id" : "obj-18",
									"fontsize" : 10.0,
									"patching_rect" : [ 105.0, 669.0, 100.0, 18.0 ],
									"numinlets" : 2,
									"numoutlets" : 2,
									"fontname" : "Arial",
									"outlettype" : [ "float", "int" ]
								}

							}
, 							{
								"box" : 								{
									"maxclass" : "newobj",
									"text" : "vexpr abs($i1-$i2) @scalarmode 1",
									"linecount" : 2,
									"id" : "obj-17",
									"fontsize" : 10.0,
									"patching_rect" : [ 105.0, 631.0, 147.0, 29.0 ],
									"numinlets" : 2,
									"numoutlets" : 1,
									"fontname" : "Arial",
									"outlettype" : [ "" ]
								}

							}
, 							{
								"box" : 								{
									"maxclass" : "newobj",
									"text" : "0",
									"id" : "obj-16",
									"fontsize" : 10.0,
									"patching_rect" : [ 120.0, 478.0, 343.0, 18.0 ],
									"numinlets" : 2,
									"numoutlets" : 1,
									"fontname" : "Arial",
									"outlettype" : [ "int" ]
								}

							}
, 							{
								"box" : 								{
									"maxclass" : "newobj",
									"text" : "zl group 256",
									"id" : "obj-15",
									"fontsize" : 10.0,
									"patching_rect" : [ 105.0, 526.0, 100.0, 18.0 ],
									"numinlets" : 2,
									"numoutlets" : 2,
									"fontname" : "Arial",
									"outlettype" : [ "", "" ]
								}

							}
, 							{
								"box" : 								{
									"maxclass" : "newobj",
									"text" : "t zlclear clear",
									"id" : "obj-30",
									"fontsize" : 12.0,
									"patching_rect" : [ 498.0, 479.0, 100.0, 20.0 ],
									"numinlets" : 1,
									"numoutlets" : 2,
									"fontname" : "Arial",
									"outlettype" : [ "zlclear", "clear" ]
								}

							}
, 							{
								"box" : 								{
									"maxclass" : "newobj",
									"text" : "prepend append",
									"id" : "obj-12",
									"fontsize" : 12.0,
									"patching_rect" : [ 342.0, 560.0, 100.0, 20.0 ],
									"numinlets" : 1,
									"numoutlets" : 1,
									"fontname" : "Arial",
									"outlettype" : [ "" ]
								}

							}
, 							{
								"box" : 								{
									"maxclass" : "newobj",
									"text" : "zl reg",
									"id" : "obj-11",
									"fontsize" : 12.0,
									"patching_rect" : [ 342.0, 522.0, 151.0, 20.0 ],
									"numinlets" : 2,
									"numoutlets" : 2,
									"fontname" : "Arial",
									"outlettype" : [ "", "" ]
								}

							}
, 							{
								"box" : 								{
									"maxclass" : "newobj",
									"text" : "sel 1",
									"id" : "obj-10",
									"fontsize" : 12.0,
									"patching_rect" : [ 342.0, 445.0, 37.0, 20.0 ],
									"numinlets" : 2,
									"numoutlets" : 2,
									"fontname" : "Arial",
									"outlettype" : [ "bang", "" ]
								}

							}
, 							{
								"box" : 								{
									"maxclass" : "newobj",
									"text" : "zl reg",
									"id" : "obj-9",
									"fontsize" : 12.0,
									"patching_rect" : [ 342.0, 243.0, 39.0, 20.0 ],
									"numinlets" : 2,
									"numoutlets" : 2,
									"fontname" : "Arial",
									"outlettype" : [ "", "" ]
								}

							}
, 							{
								"box" : 								{
									"maxclass" : "newobj",
									"text" : "unpack i i",
									"id" : "obj-8",
									"fontsize" : 12.0,
									"patching_rect" : [ 342.0, 271.0, 62.0, 20.0 ],
									"numinlets" : 1,
									"numoutlets" : 2,
									"fontname" : "Arial",
									"outlettype" : [ "int", "int" ]
								}

							}
, 							{
								"box" : 								{
									"maxclass" : "newobj",
									"text" : "t b s",
									"id" : "obj-4",
									"fontsize" : 12.0,
									"patching_rect" : [ 342.0, 209.0, 103.0, 20.0 ],
									"numinlets" : 1,
									"numoutlets" : 2,
									"fontname" : "Arial",
									"outlettype" : [ "bang", "" ]
								}

							}
, 							{
								"box" : 								{
									"maxclass" : "newobj",
									"text" : "* 1.",
									"id" : "obj-7",
									"fontsize" : 12.0,
									"patching_rect" : [ 342.0, 370.0, 62.0, 20.0 ],
									"numinlets" : 2,
									"numoutlets" : 1,
									"fontname" : "Arial",
									"outlettype" : [ "float" ]
								}

							}
, 							{
								"box" : 								{
									"maxclass" : "newobj",
									"text" : "!/ 1920.",
									"id" : "obj-6",
									"fontsize" : 12.0,
									"patching_rect" : [ 385.0, 349.0, 62.0, 20.0 ],
									"numinlets" : 2,
									"numoutlets" : 1,
									"fontname" : "Arial",
									"outlettype" : [ "float" ]
								}

							}
, 							{
								"box" : 								{
									"maxclass" : "newobj",
									"text" : "* 1",
									"id" : "obj-5",
									"fontsize" : 12.0,
									"patching_rect" : [ 385.0, 299.0, 43.0, 20.0 ],
									"numinlets" : 2,
									"numoutlets" : 1,
									"fontname" : "Arial",
									"outlettype" : [ "int" ]
								}

							}
, 							{
								"box" : 								{
									"maxclass" : "newobj",
									"text" : "t b b l b",
									"id" : "obj-2",
									"fontsize" : 12.0,
									"patching_rect" : [ 50.0, 100.0, 585.0, 20.0 ],
									"numinlets" : 1,
									"numoutlets" : 4,
									"fontname" : "Arial",
									"outlettype" : [ "bang", "bang", "", "bang" ]
								}

							}
, 							{
								"box" : 								{
									"maxclass" : "message",
									"text" : "1nd, 1n, 2nd, 2n, 4nd, 4n, 8nd, 8n, 16nd, 16n, 32nd, 32n, 64nd, 64n, 128n",
									"linecount" : 2,
									"id" : "obj-113",
									"fontsize" : 12.0,
									"patching_rect" : [ 342.0, 158.0, 236.0, 32.0 ],
									"numinlets" : 2,
									"numoutlets" : 1,
									"fontname" : "Arial",
									"outlettype" : [ "" ]
								}

							}
, 							{
								"box" : 								{
									"maxclass" : "inlet",
									"id" : "obj-46",
									"patching_rect" : [ 50.0, 40.0, 25.0, 25.0 ],
									"numinlets" : 0,
									"numoutlets" : 1,
									"outlettype" : [ "" ],
									"comment" : ""
								}

							}
, 							{
								"box" : 								{
									"maxclass" : "inlet",
									"id" : "obj-47",
									"patching_rect" : [ 233.0, 585.0, 25.0, 25.0 ],
									"numinlets" : 0,
									"numoutlets" : 1,
									"outlettype" : [ "" ],
									"comment" : "last number of steps"
								}

							}
, 							{
								"box" : 								{
									"maxclass" : "outlet",
									"id" : "obj-48",
									"patching_rect" : [ 341.666656, 682.5, 25.0, 25.0 ],
									"numinlets" : 1,
									"numoutlets" : 0,
									"comment" : ""
								}

							}
 ],
						"lines" : [ 							{
								"patchline" : 								{
									"source" : [ "obj-47", 0 ],
									"destination" : [ "obj-17", 1 ],
									"hidden" : 0,
									"midpoints" : [  ]
								}

							}
, 							{
								"patchline" : 								{
									"source" : [ "obj-15", 0 ],
									"destination" : [ "obj-17", 0 ],
									"hidden" : 0,
									"midpoints" : [  ]
								}

							}
, 							{
								"patchline" : 								{
									"source" : [ "obj-17", 0 ],
									"destination" : [ "obj-18", 0 ],
									"hidden" : 0,
									"midpoints" : [  ]
								}

							}
, 							{
								"patchline" : 								{
									"source" : [ "obj-16", 0 ],
									"destination" : [ "obj-15", 0 ],
									"hidden" : 0,
									"midpoints" : [  ]
								}

							}
, 							{
								"patchline" : 								{
									"source" : [ "obj-10", 0 ],
									"destination" : [ "obj-16", 0 ],
									"hidden" : 0,
									"midpoints" : [ 351.5, 471.0, 129.5, 471.0 ]
								}

							}
, 							{
								"patchline" : 								{
									"source" : [ "obj-19", 0 ],
									"destination" : [ "obj-16", 1 ],
									"hidden" : 0,
									"midpoints" : [ 435.0, 303.5, 453.5, 303.5 ]
								}

							}
, 							{
								"patchline" : 								{
									"source" : [ "obj-46", 0 ],
									"destination" : [ "obj-2", 0 ],
									"hidden" : 0,
									"midpoints" : [  ]
								}

							}
, 							{
								"patchline" : 								{
									"source" : [ "obj-2", 2 ],
									"destination" : [ "obj-9", 1 ],
									"hidden" : 0,
									"midpoints" : [ 436.833344, 125.0, 371.5, 125.0 ]
								}

							}
, 							{
								"patchline" : 								{
									"source" : [ "obj-2", 1 ],
									"destination" : [ "obj-113", 0 ],
									"hidden" : 0,
									"midpoints" : [  ]
								}

							}
, 							{
								"patchline" : 								{
									"source" : [ "obj-113", 0 ],
									"destination" : [ "obj-4", 0 ],
									"hidden" : 0,
									"midpoints" : [  ]
								}

							}
, 							{
								"patchline" : 								{
									"source" : [ "obj-8", 0 ],
									"destination" : [ "obj-7", 0 ],
									"hidden" : 0,
									"midpoints" : [  ]
								}

							}
, 							{
								"patchline" : 								{
									"source" : [ "obj-9", 0 ],
									"destination" : [ "obj-8", 0 ],
									"hidden" : 0,
									"midpoints" : [  ]
								}

							}
, 							{
								"patchline" : 								{
									"source" : [ "obj-4", 0 ],
									"destination" : [ "obj-9", 0 ],
									"hidden" : 0,
									"midpoints" : [  ]
								}

							}
, 							{
								"patchline" : 								{
									"source" : [ "obj-11", 0 ],
									"destination" : [ "obj-12", 0 ],
									"hidden" : 0,
									"midpoints" : [  ]
								}

							}
, 							{
								"patchline" : 								{
									"source" : [ "obj-10", 0 ],
									"destination" : [ "obj-11", 0 ],
									"hidden" : 0,
									"midpoints" : [  ]
								}

							}
, 							{
								"patchline" : 								{
									"source" : [ "obj-12", 0 ],
									"destination" : [ "obj-48", 0 ],
									"hidden" : 0,
									"midpoints" : [  ]
								}

							}
, 							{
								"patchline" : 								{
									"source" : [ "obj-2", 3 ],
									"destination" : [ "obj-30", 0 ],
									"hidden" : 0,
									"color" : [ 0.67451, 0.239216, 0.239216, 1.0 ],
									"midpoints" : [ 625.5, 465.25, 507.5, 465.25 ]
								}

							}
, 							{
								"patchline" : 								{
									"source" : [ "obj-30", 1 ],
									"destination" : [ "obj-48", 0 ],
									"hidden" : 0,
									"color" : [ 0.67451, 0.239216, 0.239216, 1.0 ],
									"midpoints" : [ 588.5, 679.25, 351.166656, 679.25 ]
								}

							}
, 							{
								"patchline" : 								{
									"source" : [ "obj-30", 0 ],
									"destination" : [ "obj-15", 0 ],
									"hidden" : 0,
									"color" : [ 1.0, 0.0, 0.0, 1.0 ],
									"midpoints" : [ 507.5, 512.0, 114.5, 512.0 ]
								}

							}
, 							{
								"patchline" : 								{
									"source" : [ "obj-2", 0 ],
									"destination" : [ "obj-15", 0 ],
									"hidden" : 0,
									"midpoints" : [ 59.5, 229.0, 114.5, 229.0 ]
								}

							}
, 							{
								"patchline" : 								{
									"source" : [ "obj-4", 1 ],
									"destination" : [ "obj-19", 0 ],
									"hidden" : 0,
									"midpoints" : [  ]
								}

							}
, 							{
								"patchline" : 								{
									"source" : [ "obj-4", 1 ],
									"destination" : [ "obj-11", 1 ],
									"hidden" : 0,
									"midpoints" : [ 435.5, 241.0, 483.5, 241.0 ]
								}

							}
, 							{
								"patchline" : 								{
									"source" : [ "obj-23", 0 ],
									"destination" : [ "obj-4", 0 ],
									"hidden" : 0,
									"midpoints" : [  ]
								}

							}
, 							{
								"patchline" : 								{
									"source" : [ "obj-19", 0 ],
									"destination" : [ "obj-5", 1 ],
									"hidden" : 0,
									"midpoints" : [  ]
								}

							}
, 							{
								"patchline" : 								{
									"source" : [ "obj-8", 1 ],
									"destination" : [ "obj-5", 0 ],
									"hidden" : 0,
									"midpoints" : [  ]
								}

							}
, 							{
								"patchline" : 								{
									"source" : [ "obj-5", 0 ],
									"destination" : [ "obj-6", 0 ],
									"hidden" : 0,
									"midpoints" : [  ]
								}

							}
, 							{
								"patchline" : 								{
									"source" : [ "obj-26", 0 ],
									"destination" : [ "obj-6", 1 ],
									"hidden" : 0,
									"midpoints" : [ 510.0, 347.0, 437.5, 347.0 ]
								}

							}
, 							{
								"patchline" : 								{
									"source" : [ "obj-6", 0 ],
									"destination" : [ "obj-7", 1 ],
									"hidden" : 0,
									"midpoints" : [  ]
								}

							}
, 							{
								"patchline" : 								{
									"source" : [ "obj-31", 0 ],
									"destination" : [ "obj-26", 0 ],
									"hidden" : 0,
									"midpoints" : [  ]
								}

							}
, 							{
								"patchline" : 								{
									"source" : [ "obj-7", 0 ],
									"destination" : [ "obj-1", 0 ],
									"hidden" : 0,
									"midpoints" : [  ]
								}

							}
, 							{
								"patchline" : 								{
									"source" : [ "obj-7", 0 ],
									"destination" : [ "obj-13", 0 ],
									"hidden" : 0,
									"midpoints" : [  ]
								}

							}
, 							{
								"patchline" : 								{
									"source" : [ "obj-13", 0 ],
									"destination" : [ "obj-1", 1 ],
									"hidden" : 0,
									"midpoints" : [  ]
								}

							}
, 							{
								"patchline" : 								{
									"source" : [ "obj-1", 0 ],
									"destination" : [ "obj-10", 0 ],
									"hidden" : 0,
									"midpoints" : [  ]
								}

							}
, 							{
								"patchline" : 								{
									"source" : [ "obj-18", 1 ],
									"destination" : [ "obj-3", 0 ],
									"hidden" : 0,
									"midpoints" : [  ]
								}

							}
, 							{
								"patchline" : 								{
									"source" : [ "obj-11", 0 ],
									"destination" : [ "obj-14", 0 ],
									"hidden" : 0,
									"midpoints" : [  ]
								}

							}
, 							{
								"patchline" : 								{
									"source" : [ "obj-30", 0 ],
									"destination" : [ "obj-14", 0 ],
									"hidden" : 0,
									"color" : [ 1.0, 0.0, 0.0, 1.0 ],
									"midpoints" : [ 507.5, 511.5, 59.5, 511.5 ]
								}

							}
, 							{
								"patchline" : 								{
									"source" : [ "obj-2", 0 ],
									"destination" : [ "obj-14", 0 ],
									"hidden" : 0,
									"midpoints" : [  ]
								}

							}
, 							{
								"patchline" : 								{
									"source" : [ "obj-18", 1 ],
									"destination" : [ "obj-24", 1 ],
									"hidden" : 0,
									"midpoints" : [  ]
								}

							}
, 							{
								"patchline" : 								{
									"source" : [ "obj-14", 0 ],
									"destination" : [ "obj-24", 0 ],
									"hidden" : 0,
									"midpoints" : [  ]
								}

							}
, 							{
								"patchline" : 								{
									"source" : [ "obj-24", 0 ],
									"destination" : [ "obj-22", 0 ],
									"hidden" : 0,
									"midpoints" : [  ]
								}

							}
 ]
					}
,
					"saved_object_attributes" : 					{
						"default_fontname" : "Arial",
						"fontface" : 0,
						"fontsize" : 10.0,
						"globalpatchername" : "",
						"default_fontsize" : 10.0,
						"fontname" : "Arial",
						"default_fontface" : 0
					}

				}

			}
, 			{
				"box" : 				{
					"maxclass" : "newobj",
					"text" : "t b s",
					"id" : "obj-68",
					"fontsize" : 12.0,
					"patching_rect" : [ 157.0, 343.0, 100.0, 20.0 ],
					"numinlets" : 1,
					"numoutlets" : 2,
					"fontname" : "Arial",
					"outlettype" : [ "bang", "" ]
				}

			}
, 			{
				"box" : 				{
					"maxclass" : "newobj",
					"text" : "zl reg",
					"id" : "obj-105",
					"fontsize" : 12.0,
					"patching_rect" : [ 157.0, 378.0, 307.0, 20.0 ],
					"numinlets" : 2,
					"numoutlets" : 2,
					"fontname" : "Arial",
					"outlettype" : [ "", "" ]
				}

			}
, 			{
				"box" : 				{
					"maxclass" : "newobj",
					"text" : "zl join",
					"id" : "obj-106",
					"fontsize" : 12.0,
					"patching_rect" : [ 157.0, 409.0, 100.0, 20.0 ],
					"numinlets" : 2,
					"numoutlets" : 2,
					"fontname" : "Arial",
					"outlettype" : [ "", "" ]
				}

			}
, 			{
				"box" : 				{
					"maxclass" : "newobj",
					"text" : "pak 4 4",
					"id" : "obj-107",
					"fontsize" : 12.0,
					"patching_rect" : [ 50.0, 41.0, 65.0, 20.0 ],
					"numinlets" : 2,
					"numoutlets" : 1,
					"fontname" : "Arial",
					"outlettype" : [ "" ]
				}

			}
, 			{
				"box" : 				{
					"maxclass" : "newobj",
					"text" : "coll #0fractions",
					"id" : "obj-110",
					"fontsize" : 12.0,
					"patching_rect" : [ 217.0, 494.0, 166.0, 20.0 ],
					"numinlets" : 1,
					"numoutlets" : 4,
					"fontname" : "Arial",
					"outlettype" : [ "", "", "", "" ],
					"coll_data" : 					{
						"count" : 21,
						"data" : [ 							{
								"key" : "1nd",
								"value" : [ 1.5 ]
							}
, 							{
								"key" : "1n",
								"value" : [ 1.0 ]
							}
, 							{
								"key" : "1nt",
								"value" : [ 0.666667 ]
							}
, 							{
								"key" : "2nd",
								"value" : [ 0.75 ]
							}
, 							{
								"key" : "2n",
								"value" : [ 0.5 ]
							}
, 							{
								"key" : "2nt",
								"value" : [ 0.333333 ]
							}
, 							{
								"key" : "4nd",
								"value" : [ 0.375 ]
							}
, 							{
								"key" : "4n",
								"value" : [ 0.25 ]
							}
, 							{
								"key" : "4nt",
								"value" : [ 0.166667 ]
							}
, 							{
								"key" : "8nd",
								"value" : [ 0.1875 ]
							}
, 							{
								"key" : "8n",
								"value" : [ 0.125 ]
							}
, 							{
								"key" : "8nt",
								"value" : [ 0.083333 ]
							}
, 							{
								"key" : "16nd",
								"value" : [ 0.09375 ]
							}
, 							{
								"key" : "16n",
								"value" : [ 0.0625 ]
							}
, 							{
								"key" : "16nt",
								"value" : [ 0.041667 ]
							}
, 							{
								"key" : "32nd",
								"value" : [ 0.046875 ]
							}
, 							{
								"key" : "32n",
								"value" : [ 0.03125 ]
							}
, 							{
								"key" : "32nt",
								"value" : [ 0.020833 ]
							}
, 							{
								"key" : "64nd",
								"value" : [ 0.023438 ]
							}
, 							{
								"key" : "64n",
								"value" : [ 0.015625 ]
							}
, 							{
								"key" : "128n",
								"value" : [ 0.007813 ]
							}
 ]
					}
,
					"saved_object_attributes" : 					{
						"embed" : 1
					}

				}

			}
, 			{
				"box" : 				{
					"maxclass" : "newobj",
					"text" : "kin.PrimeFactors",
					"id" : "obj-112",
					"fontsize" : 12.0,
					"patching_rect" : [ 157.0, 439.0, 110.0, 20.0 ],
					"numinlets" : 1,
					"numoutlets" : 1,
					"fontname" : "Arial",
					"outlettype" : [ "" ]
				}

			}
, 			{
				"box" : 				{
					"maxclass" : "inlet",
					"id" : "obj-7",
					"patching_rect" : [ 50.0, 10.0, 25.0, 25.0 ],
					"numinlets" : 0,
					"numoutlets" : 1,
					"outlettype" : [ "" ],
					"comment" : "(int) nominator"
				}

			}
, 			{
				"box" : 				{
					"maxclass" : "inlet",
					"id" : "obj-8",
					"patching_rect" : [ 157.0, 82.0, 25.0, 25.0 ],
					"numinlets" : 0,
					"numoutlets" : 1,
					"outlettype" : [ "" ],
					"comment" : "(symbol) metrical level"
				}

			}
, 			{
				"box" : 				{
					"maxclass" : "inlet",
					"id" : "obj-9",
					"patching_rect" : [ 97.0, 9.0, 25.0, 25.0 ],
					"numinlets" : 0,
					"numoutlets" : 1,
					"outlettype" : [ "" ],
					"comment" : "denominator"
				}

			}
, 			{
				"box" : 				{
					"maxclass" : "outlet",
					"id" : "obj-11",
					"patching_rect" : [ 296.0, 223.0, 25.0, 25.0 ],
					"numinlets" : 1,
					"numoutlets" : 0,
					"comment" : "messages to menu"
				}

			}
, 			{
				"box" : 				{
					"maxclass" : "outlet",
					"id" : "obj-12",
					"patching_rect" : [ 157.0, 532.0, 25.0, 25.0 ],
					"numinlets" : 1,
					"numoutlets" : 0,
					"comment" : "list of # pulses + prime factors"
				}

			}
 ],
		"lines" : [ 			{
				"patchline" : 				{
					"source" : [ "obj-19", 0 ],
					"destination" : [ "obj-50", 1 ],
					"hidden" : 0,
					"midpoints" : [  ]
				}

			}
, 			{
				"patchline" : 				{
					"source" : [ "obj-8", 0 ],
					"destination" : [ "obj-19", 0 ],
					"hidden" : 0,
					"midpoints" : [ 166.5, 109.5, 305.0, 109.5 ]
				}

			}
, 			{
				"patchline" : 				{
					"source" : [ "obj-8", 0 ],
					"destination" : [ "obj-68", 0 ],
					"hidden" : 0,
					"midpoints" : [  ]
				}

			}
, 			{
				"patchline" : 				{
					"source" : [ "obj-68", 0 ],
					"destination" : [ "obj-105", 0 ],
					"hidden" : 0,
					"midpoints" : [  ]
				}

			}
, 			{
				"patchline" : 				{
					"source" : [ "obj-68", 1 ],
					"destination" : [ "obj-106", 1 ],
					"hidden" : 0,
					"midpoints" : [  ]
				}

			}
, 			{
				"patchline" : 				{
					"source" : [ "obj-105", 0 ],
					"destination" : [ "obj-106", 0 ],
					"hidden" : 0,
					"midpoints" : [  ]
				}

			}
, 			{
				"patchline" : 				{
					"source" : [ "obj-107", 0 ],
					"destination" : [ "obj-105", 1 ],
					"hidden" : 0,
					"midpoints" : [ 59.5, 71.0, 454.5, 71.0 ]
				}

			}
, 			{
				"patchline" : 				{
					"source" : [ "obj-7", 0 ],
					"destination" : [ "obj-107", 0 ],
					"hidden" : 0,
					"midpoints" : [  ]
				}

			}
, 			{
				"patchline" : 				{
					"source" : [ "obj-9", 0 ],
					"destination" : [ "obj-107", 1 ],
					"hidden" : 0,
					"midpoints" : [  ]
				}

			}
, 			{
				"patchline" : 				{
					"source" : [ "obj-50", 2 ],
					"destination" : [ "obj-11", 0 ],
					"hidden" : 0,
					"midpoints" : [ 305.5, 171.5, 305.5, 171.5 ]
				}

			}
, 			{
				"patchline" : 				{
					"source" : [ "obj-107", 0 ],
					"destination" : [ "obj-50", 0 ],
					"hidden" : 0,
					"midpoints" : [  ]
				}

			}
, 			{
				"patchline" : 				{
					"source" : [ "obj-50", 1 ],
					"destination" : [ "obj-1", 0 ],
					"hidden" : 0,
					"midpoints" : [  ]
				}

			}
, 			{
				"patchline" : 				{
					"source" : [ "obj-1", 0 ],
					"destination" : [ "obj-11", 0 ],
					"hidden" : 0,
					"midpoints" : [  ]
				}

			}
, 			{
				"patchline" : 				{
					"source" : [ "obj-50", 0 ],
					"destination" : [ "obj-68", 0 ],
					"hidden" : 0,
					"midpoints" : [  ]
				}

			}
, 			{
				"patchline" : 				{
					"source" : [ "obj-112", 0 ],
					"destination" : [ "obj-12", 0 ],
					"hidden" : 0,
					"midpoints" : [  ]
				}

			}
, 			{
				"patchline" : 				{
					"source" : [ "obj-106", 0 ],
					"destination" : [ "obj-112", 0 ],
					"hidden" : 0,
					"midpoints" : [  ]
				}

			}
 ]
	}

}
