{
	"patcher" : 	{
		"fileversion" : 1,
		"rect" : [ 1018.0, 74.0, 736.0, 707.0 ],
		"bglocked" : 0,
		"defrect" : [ 1018.0, 74.0, 736.0, 707.0 ],
		"openrect" : [ 0.0, 0.0, 0.0, 0.0 ],
		"openinpresentation" : 0,
		"default_fontsize" : 12.0,
		"default_fontface" : 0,
		"default_fontname" : "Arial",
		"gridonopen" : 0,
		"gridsize" : [ 15.0, 15.0 ],
		"gridsnaponopen" : 0,
		"toolbarvisible" : 1,
		"boxanimatetime" : 200,
		"imprint" : 0,
		"enablehscroll" : 1,
		"enablevscroll" : 1,
		"devicewidth" : 0.0,
		"boxes" : [ 			{
				"box" : 				{
					"maxclass" : "newobj",
					"text" : "route name",
					"fontname" : "Arial",
					"outlettype" : [ "", "" ],
					"id" : "obj-18",
					"fontsize" : 12.0,
					"patching_rect" : [ 386.0, 106.0, 73.0, 20.0 ],
					"numinlets" : 1,
					"numoutlets" : 2
				}

			}
, 			{
				"box" : 				{
					"maxclass" : "newobj",
					"text" : "route begin list",
					"fontname" : "Arial",
					"outlettype" : [ "", "", "" ],
					"id" : "obj-17",
					"fontsize" : 9.0,
					"patching_rect" : [ 49.0, 80.0, 132.0, 17.0 ],
					"numinlets" : 1,
					"numoutlets" : 3
				}

			}
, 			{
				"box" : 				{
					"maxclass" : "newobj",
					"text" : "prepend transport",
					"fontname" : "Arial",
					"outlettype" : [ "" ],
					"id" : "obj-11",
					"fontsize" : 12.0,
					"patching_rect" : [ 386.0, 149.0, 108.0, 20.0 ],
					"numinlets" : 1,
					"numoutlets" : 1
				}

			}
, 			{
				"box" : 				{
					"maxclass" : "newobj",
					"text" : "transport",
					"fontname" : "Arial",
					"outlettype" : [ "int", "int", "float", "float", "float", "", "int", "float", "" ],
					"id" : "obj-2",
					"fontsize" : 12.0,
					"patching_rect" : [ 471.0, 112.0, 100.0, 20.0 ],
					"numinlets" : 2,
					"numoutlets" : 9
				}

			}
, 			{
				"box" : 				{
					"maxclass" : "inlet",
					"outlettype" : [ "" ],
					"id" : "obj-1",
					"patching_rect" : [ 471.0, 33.0, 25.0, 25.0 ],
					"numinlets" : 0,
					"numoutlets" : 1,
					"comment" : "messages to the transport"
				}

			}
, 			{
				"box" : 				{
					"maxclass" : "outlet",
					"id" : "obj-12",
					"patching_rect" : [ 106.0, 591.0, 25.0, 25.0 ],
					"numinlets" : 1,
					"numoutlets" : 0,
					"comment" : "output of stored messages"
				}

			}
, 			{
				"box" : 				{
					"maxclass" : "newobj",
					"text" : "when",
					"fontname" : "Arial",
					"outlettype" : [ "list", "bang" ],
					"id" : "obj-10",
					"fontsize" : 12.0,
					"patching_rect" : [ 124.0, 363.0, 40.0, 20.0 ],
					"numinlets" : 1,
					"numoutlets" : 2
				}

			}
, 			{
				"box" : 				{
					"maxclass" : "newobj",
					"text" : "t clear",
					"fontname" : "Arial",
					"outlettype" : [ "clear" ],
					"id" : "obj-9",
					"fontsize" : 12.0,
					"patching_rect" : [ 49.0, 493.0, 43.0, 20.0 ],
					"numinlets" : 1,
					"numoutlets" : 1
				}

			}
, 			{
				"box" : 				{
					"maxclass" : "inlet",
					"outlettype" : [ "" ],
					"id" : "obj-8",
					"patching_rect" : [ 49.0, 21.0, 25.0, 25.0 ],
					"numinlets" : 0,
					"numoutlets" : 1,
					"comment" : "dump mesaages from midi file reader"
				}

			}
, 			{
				"box" : 				{
					"maxclass" : "inlet",
					"outlettype" : [ "" ],
					"id" : "obj-5",
					"patching_rect" : [ 326.0, 367.0, 25.0, 25.0 ],
					"numinlets" : 0,
					"numoutlets" : 1,
					"comment" : "loop length in BBU"
				}

			}
, 			{
				"box" : 				{
					"maxclass" : "newobj",
					"text" : "change",
					"fontname" : "Arial",
					"outlettype" : [ "", "int", "int" ],
					"id" : "obj-39",
					"fontsize" : 12.0,
					"patching_rect" : [ 145.0, 481.0, 100.0, 20.0 ],
					"numinlets" : 1,
					"numoutlets" : 3
				}

			}
, 			{
				"box" : 				{
					"maxclass" : "newobj",
					"text" : "* 15",
					"fontname" : "Arial",
					"outlettype" : [ "int" ],
					"id" : "obj-37",
					"fontsize" : 12.0,
					"patching_rect" : [ 145.0, 428.0, 32.5, 20.0 ],
					"numinlets" : 2,
					"numoutlets" : 1
				}

			}
, 			{
				"box" : 				{
					"maxclass" : "newobj",
					"text" : "/ 15.",
					"fontname" : "Arial",
					"outlettype" : [ "float" ],
					"id" : "obj-38",
					"fontsize" : 12.0,
					"patching_rect" : [ 145.0, 405.0, 32.5, 20.0 ],
					"numinlets" : 2,
					"numoutlets" : 1
				}

			}
, 			{
				"box" : 				{
					"maxclass" : "newobj",
					"text" : "* 15",
					"fontname" : "Arial",
					"outlettype" : [ "int" ],
					"id" : "obj-36",
					"fontsize" : 12.0,
					"patching_rect" : [ 106.0, 224.0, 32.5, 20.0 ],
					"numinlets" : 2,
					"numoutlets" : 1
				}

			}
, 			{
				"box" : 				{
					"maxclass" : "newobj",
					"text" : "/ 15.",
					"fontname" : "Arial",
					"outlettype" : [ "float" ],
					"id" : "obj-35",
					"fontsize" : 12.0,
					"patching_rect" : [ 106.0, 189.0, 32.5, 20.0 ],
					"numinlets" : 2,
					"numoutlets" : 1
				}

			}
, 			{
				"box" : 				{
					"maxclass" : "newobj",
					"text" : "metro @interval 15 ticks @active 1 @autostart 1 @autostarttime 0. @quantize 15 ticks",
					"fontname" : "Arial",
					"outlettype" : [ "bang" ],
					"id" : "obj-24",
					"fontsize" : 12.0,
					"patching_rect" : [ 124.0, 331.0, 476.0, 20.0 ],
					"numinlets" : 2,
					"numoutlets" : 1
				}

			}
, 			{
				"box" : 				{
					"maxclass" : "newobj",
					"text" : "%",
					"fontname" : "Arial",
					"outlettype" : [ "int" ],
					"id" : "obj-21",
					"fontsize" : 12.0,
					"patching_rect" : [ 145.0, 453.0, 69.0, 20.0 ],
					"numinlets" : 2,
					"numoutlets" : 1
				}

			}
, 			{
				"box" : 				{
					"maxclass" : "newobj",
					"text" : "loadmess 1.0.0",
					"fontname" : "Arial",
					"outlettype" : [ "" ],
					"id" : "obj-20",
					"fontsize" : 12.0,
					"patching_rect" : [ 195.0, 394.0, 100.0, 20.0 ],
					"numinlets" : 1,
					"numoutlets" : 1
				}

			}
, 			{
				"box" : 				{
					"maxclass" : "newobj",
					"text" : "translate @in bbu @out ticks",
					"fontname" : "Arial",
					"outlettype" : [ "" ],
					"id" : "obj-19",
					"fontsize" : 12.0,
					"patching_rect" : [ 195.0, 425.0, 167.0, 20.0 ],
					"numinlets" : 1,
					"numoutlets" : 1
				}

			}
, 			{
				"box" : 				{
					"maxclass" : "newobj",
					"text" : "prepend merge",
					"fontname" : "Arial",
					"outlettype" : [ "" ],
					"id" : "obj-14",
					"fontsize" : 12.0,
					"patching_rect" : [ 106.0, 289.0, 100.0, 20.0 ],
					"numinlets" : 1,
					"numoutlets" : 1
				}

			}
, 			{
				"box" : 				{
					"maxclass" : "newobj",
					"text" : "coll",
					"fontname" : "Arial",
					"outlettype" : [ "", "", "", "" ],
					"id" : "obj-13",
					"fontsize" : 12.0,
					"patching_rect" : [ 106.0, 542.0, 100.0, 20.0 ],
					"numinlets" : 1,
					"numoutlets" : 4,
					"saved_object_attributes" : 					{
						"embed" : 0
					}

				}

			}
, 			{
				"box" : 				{
					"maxclass" : "newobj",
					"text" : "zl join",
					"fontname" : "Arial",
					"outlettype" : [ "", "" ],
					"id" : "obj-28",
					"fontsize" : 12.0,
					"patching_rect" : [ 106.0, 263.0, 230.0, 20.0 ],
					"numinlets" : 2,
					"numoutlets" : 2
				}

			}
, 			{
				"box" : 				{
					"maxclass" : "newobj",
					"text" : "translate @in bbu @out ticks @mode position",
					"linecount" : 2,
					"fontname" : "Arial",
					"outlettype" : [ "" ],
					"id" : "obj-4",
					"fontsize" : 12.0,
					"patching_rect" : [ 106.0, 149.0, 174.0, 34.0 ],
					"numinlets" : 1,
					"numoutlets" : 1
				}

			}
, 			{
				"box" : 				{
					"maxclass" : "newobj",
					"text" : "zl slice 3",
					"fontname" : "Arial",
					"outlettype" : [ "", "" ],
					"id" : "obj-3",
					"fontsize" : 12.0,
					"patching_rect" : [ 106.0, 123.0, 230.0, 20.0 ],
					"numinlets" : 2,
					"numoutlets" : 2
				}

			}
 ],
		"lines" : [ 			{
				"patchline" : 				{
					"source" : [ "obj-1", 0 ],
					"destination" : [ "obj-2", 0 ],
					"hidden" : 0,
					"midpoints" : [  ]
				}

			}
, 			{
				"patchline" : 				{
					"source" : [ "obj-18", 0 ],
					"destination" : [ "obj-11", 0 ],
					"hidden" : 0,
					"midpoints" : [  ]
				}

			}
, 			{
				"patchline" : 				{
					"source" : [ "obj-1", 0 ],
					"destination" : [ "obj-18", 0 ],
					"hidden" : 0,
					"midpoints" : [ 480.5, 79.0, 395.5, 79.0 ]
				}

			}
, 			{
				"patchline" : 				{
					"source" : [ "obj-17", 0 ],
					"destination" : [ "obj-9", 0 ],
					"hidden" : 0,
					"midpoints" : [  ]
				}

			}
, 			{
				"patchline" : 				{
					"source" : [ "obj-8", 0 ],
					"destination" : [ "obj-17", 0 ],
					"hidden" : 0,
					"midpoints" : [  ]
				}

			}
, 			{
				"patchline" : 				{
					"source" : [ "obj-17", 1 ],
					"destination" : [ "obj-3", 0 ],
					"hidden" : 0,
					"midpoints" : [  ]
				}

			}
, 			{
				"patchline" : 				{
					"source" : [ "obj-24", 0 ],
					"destination" : [ "obj-10", 0 ],
					"hidden" : 0,
					"midpoints" : [  ]
				}

			}
, 			{
				"patchline" : 				{
					"source" : [ "obj-10", 1 ],
					"destination" : [ "obj-38", 0 ],
					"hidden" : 0,
					"midpoints" : [  ]
				}

			}
, 			{
				"patchline" : 				{
					"source" : [ "obj-4", 0 ],
					"destination" : [ "obj-35", 0 ],
					"hidden" : 0,
					"midpoints" : [  ]
				}

			}
, 			{
				"patchline" : 				{
					"source" : [ "obj-3", 0 ],
					"destination" : [ "obj-4", 0 ],
					"hidden" : 0,
					"midpoints" : [  ]
				}

			}
, 			{
				"patchline" : 				{
					"source" : [ "obj-21", 0 ],
					"destination" : [ "obj-39", 0 ],
					"hidden" : 0,
					"midpoints" : [  ]
				}

			}
, 			{
				"patchline" : 				{
					"source" : [ "obj-39", 0 ],
					"destination" : [ "obj-13", 0 ],
					"hidden" : 0,
					"midpoints" : [  ]
				}

			}
, 			{
				"patchline" : 				{
					"source" : [ "obj-19", 0 ],
					"destination" : [ "obj-21", 1 ],
					"hidden" : 0,
					"midpoints" : [  ]
				}

			}
, 			{
				"patchline" : 				{
					"source" : [ "obj-14", 0 ],
					"destination" : [ "obj-13", 0 ],
					"hidden" : 0,
					"midpoints" : [  ]
				}

			}
, 			{
				"patchline" : 				{
					"source" : [ "obj-28", 0 ],
					"destination" : [ "obj-14", 0 ],
					"hidden" : 0,
					"midpoints" : [  ]
				}

			}
, 			{
				"patchline" : 				{
					"source" : [ "obj-3", 1 ],
					"destination" : [ "obj-28", 1 ],
					"hidden" : 0,
					"midpoints" : [  ]
				}

			}
, 			{
				"patchline" : 				{
					"source" : [ "obj-20", 0 ],
					"destination" : [ "obj-19", 0 ],
					"hidden" : 0,
					"midpoints" : [  ]
				}

			}
, 			{
				"patchline" : 				{
					"source" : [ "obj-5", 0 ],
					"destination" : [ "obj-19", 0 ],
					"hidden" : 0,
					"midpoints" : [ 335.5, 417.0, 204.5, 417.0 ]
				}

			}
, 			{
				"patchline" : 				{
					"source" : [ "obj-9", 0 ],
					"destination" : [ "obj-13", 0 ],
					"hidden" : 0,
					"midpoints" : [  ]
				}

			}
, 			{
				"patchline" : 				{
					"source" : [ "obj-13", 0 ],
					"destination" : [ "obj-12", 0 ],
					"hidden" : 0,
					"midpoints" : [  ]
				}

			}
, 			{
				"patchline" : 				{
					"source" : [ "obj-35", 0 ],
					"destination" : [ "obj-36", 0 ],
					"hidden" : 0,
					"midpoints" : [  ]
				}

			}
, 			{
				"patchline" : 				{
					"source" : [ "obj-36", 0 ],
					"destination" : [ "obj-28", 0 ],
					"hidden" : 0,
					"midpoints" : [  ]
				}

			}
, 			{
				"patchline" : 				{
					"source" : [ "obj-38", 0 ],
					"destination" : [ "obj-37", 0 ],
					"hidden" : 0,
					"midpoints" : [  ]
				}

			}
, 			{
				"patchline" : 				{
					"source" : [ "obj-37", 0 ],
					"destination" : [ "obj-21", 0 ],
					"hidden" : 0,
					"midpoints" : [  ]
				}

			}
, 			{
				"patchline" : 				{
					"source" : [ "obj-11", 0 ],
					"destination" : [ "obj-4", 0 ],
					"hidden" : 0,
					"midpoints" : [  ]
				}

			}
, 			{
				"patchline" : 				{
					"source" : [ "obj-11", 0 ],
					"destination" : [ "obj-19", 0 ],
					"hidden" : 0,
					"midpoints" : [  ]
				}

			}
, 			{
				"patchline" : 				{
					"source" : [ "obj-11", 0 ],
					"destination" : [ "obj-24", 0 ],
					"hidden" : 0,
					"midpoints" : [  ]
				}

			}
 ]
	}

}
