{
	"patcher" : 	{
		"fileversion" : 1,
		"rect" : [ 512.0, 498.0, 640.0, 488.0 ],
		"bglocked" : 0,
		"defrect" : [ 512.0, 498.0, 640.0, 488.0 ],
		"openrect" : [ 0.0, 0.0, 0.0, 0.0 ],
		"openinpresentation" : 0,
		"default_fontsize" : 12.0,
		"default_fontface" : 0,
		"default_fontname" : "Arial",
		"gridonopen" : 0,
		"gridsize" : [ 15.0, 15.0 ],
		"gridsnaponopen" : 0,
		"toolbarvisible" : 1,
		"boxanimatetime" : 200,
		"imprint" : 0,
		"enablehscroll" : 1,
		"enablevscroll" : 1,
		"devicewidth" : 0.0,
		"boxes" : [ 			{
				"box" : 				{
					"maxclass" : "newobj",
					"text" : "t l l l",
					"fontsize" : 12.0,
					"numinlets" : 1,
					"patching_rect" : [ 34.0, 46.0, 396.0, 20.0 ],
					"numoutlets" : 3,
					"outlettype" : [ "", "", "" ],
					"fontname" : "Arial",
					"id" : "obj-28"
				}

			}
, 			{
				"box" : 				{
					"maxclass" : "comment",
					"text" : "put it at indx1",
					"fontsize" : 12.0,
					"numinlets" : 1,
					"patching_rect" : [ 355.0, 345.0, 81.0, 20.0 ],
					"numoutlets" : 0,
					"fontname" : "Arial",
					"id" : "obj-25"
				}

			}
, 			{
				"box" : 				{
					"maxclass" : "comment",
					"text" : "get ellement indx2",
					"fontsize" : 12.0,
					"numinlets" : 1,
					"patching_rect" : [ 340.0, 256.0, 110.0, 20.0 ],
					"numoutlets" : 0,
					"fontname" : "Arial",
					"id" : "obj-22"
				}

			}
, 			{
				"box" : 				{
					"maxclass" : "newobj",
					"text" : "zl mth",
					"fontsize" : 12.0,
					"numinlets" : 2,
					"patching_rect" : [ 34.0, 346.0, 310.0, 20.0 ],
					"numoutlets" : 2,
					"outlettype" : [ "", "" ],
					"fontname" : "Arial",
					"id" : "obj-20"
				}

			}
, 			{
				"box" : 				{
					"maxclass" : "newobj",
					"text" : "prepend",
					"fontsize" : 12.0,
					"numinlets" : 1,
					"patching_rect" : [ 325.0, 314.0, 56.0, 20.0 ],
					"numoutlets" : 1,
					"outlettype" : [ "" ],
					"fontname" : "Arial",
					"id" : "obj-18"
				}

			}
, 			{
				"box" : 				{
					"maxclass" : "newobj",
					"text" : "zl mth",
					"fontsize" : 12.0,
					"numinlets" : 2,
					"patching_rect" : [ 325.0, 281.0, 133.0, 20.0 ],
					"numoutlets" : 2,
					"outlettype" : [ "", "" ],
					"fontname" : "Arial",
					"id" : "obj-19"
				}

			}
, 			{
				"box" : 				{
					"maxclass" : "newobj",
					"text" : "prepend set",
					"fontsize" : 12.0,
					"numinlets" : 1,
					"patching_rect" : [ 257.0, 254.0, 76.0, 20.0 ],
					"numoutlets" : 1,
					"outlettype" : [ "" ],
					"fontname" : "Arial",
					"id" : "obj-17"
				}

			}
, 			{
				"box" : 				{
					"maxclass" : "comment",
					"text" : "put it on indx2",
					"fontsize" : 12.0,
					"numinlets" : 1,
					"patching_rect" : [ 136.0, 212.0, 85.0, 20.0 ],
					"numoutlets" : 0,
					"fontname" : "Arial",
					"id" : "obj-14"
				}

			}
, 			{
				"box" : 				{
					"maxclass" : "comment",
					"text" : "get the ellement indx1",
					"fontsize" : 12.0,
					"numinlets" : 1,
					"patching_rect" : [ 78.0, 120.0, 130.0, 20.0 ],
					"numoutlets" : 0,
					"fontname" : "Arial",
					"id" : "obj-12"
				}

			}
, 			{
				"box" : 				{
					"maxclass" : "newobj",
					"text" : "prepend set",
					"fontsize" : 12.0,
					"numinlets" : 1,
					"patching_rect" : [ 346.0, 152.0, 76.0, 20.0 ],
					"numoutlets" : 1,
					"outlettype" : [ "" ],
					"fontname" : "Arial",
					"id" : "obj-10"
				}

			}
, 			{
				"box" : 				{
					"maxclass" : "newobj",
					"text" : "prepend",
					"fontsize" : 12.0,
					"numinlets" : 1,
					"patching_rect" : [ 115.0, 184.0, 56.0, 20.0 ],
					"numoutlets" : 1,
					"outlettype" : [ "" ],
					"fontname" : "Arial",
					"id" : "obj-9"
				}

			}
, 			{
				"box" : 				{
					"maxclass" : "newobj",
					"text" : "zl mth",
					"fontsize" : 12.0,
					"numinlets" : 2,
					"patching_rect" : [ 115.0, 151.0, 137.0, 20.0 ],
					"numoutlets" : 2,
					"outlettype" : [ "", "" ],
					"fontname" : "Arial",
					"id" : "obj-6"
				}

			}
, 			{
				"box" : 				{
					"maxclass" : "newobj",
					"text" : "unpack i i",
					"fontsize" : 12.0,
					"numinlets" : 1,
					"patching_rect" : [ 258.0, 111.0, 107.0, 20.0 ],
					"numoutlets" : 2,
					"outlettype" : [ "int", "int" ],
					"fontname" : "Arial",
					"id" : "obj-5"
				}

			}
, 			{
				"box" : 				{
					"maxclass" : "newobj",
					"text" : "zl mth",
					"fontsize" : 12.0,
					"numinlets" : 2,
					"patching_rect" : [ 34.0, 214.0, 100.0, 20.0 ],
					"numoutlets" : 2,
					"outlettype" : [ "", "" ],
					"fontname" : "Arial",
					"id" : "obj-4"
				}

			}
, 			{
				"box" : 				{
					"maxclass" : "outlet",
					"numinlets" : 1,
					"patching_rect" : [ 325.0, 393.0, 25.0, 25.0 ],
					"numoutlets" : 0,
					"id" : "obj-3",
					"comment" : ""
				}

			}
, 			{
				"box" : 				{
					"maxclass" : "inlet",
					"numinlets" : 0,
					"patching_rect" : [ 258.0, 75.0, 25.0, 25.0 ],
					"numoutlets" : 1,
					"outlettype" : [ "" ],
					"id" : "obj-2",
					"comment" : "chnage index 1 with index 2 (0 based)"
				}

			}
, 			{
				"box" : 				{
					"maxclass" : "inlet",
					"numinlets" : 0,
					"patching_rect" : [ 34.0, 6.0, 25.0, 25.0 ],
					"numoutlets" : 1,
					"outlettype" : [ "" ],
					"id" : "obj-1",
					"comment" : ""
				}

			}
 ],
		"lines" : [ 			{
				"patchline" : 				{
					"source" : [ "obj-2", 0 ],
					"destination" : [ "obj-5", 0 ],
					"hidden" : 0,
					"midpoints" : [  ]
				}

			}
, 			{
				"patchline" : 				{
					"source" : [ "obj-5", 1 ],
					"destination" : [ "obj-10", 0 ],
					"hidden" : 0,
					"midpoints" : [  ]
				}

			}
, 			{
				"patchline" : 				{
					"source" : [ "obj-10", 0 ],
					"destination" : [ "obj-9", 0 ],
					"hidden" : 0,
					"midpoints" : [ 355.5, 178.0, 124.5, 178.0 ]
				}

			}
, 			{
				"patchline" : 				{
					"source" : [ "obj-5", 0 ],
					"destination" : [ "obj-17", 0 ],
					"hidden" : 0,
					"midpoints" : [  ]
				}

			}
, 			{
				"patchline" : 				{
					"source" : [ "obj-17", 0 ],
					"destination" : [ "obj-18", 0 ],
					"hidden" : 0,
					"midpoints" : [ 266.5, 307.5, 334.5, 307.5 ]
				}

			}
, 			{
				"patchline" : 				{
					"source" : [ "obj-6", 0 ],
					"destination" : [ "obj-9", 0 ],
					"hidden" : 0,
					"midpoints" : [  ]
				}

			}
, 			{
				"patchline" : 				{
					"source" : [ "obj-5", 0 ],
					"destination" : [ "obj-6", 1 ],
					"hidden" : 0,
					"midpoints" : [  ]
				}

			}
, 			{
				"patchline" : 				{
					"source" : [ "obj-5", 1 ],
					"destination" : [ "obj-19", 1 ],
					"hidden" : 0,
					"midpoints" : [ 355.5, 143.5, 448.5, 143.5 ]
				}

			}
, 			{
				"patchline" : 				{
					"source" : [ "obj-19", 0 ],
					"destination" : [ "obj-18", 0 ],
					"hidden" : 0,
					"midpoints" : [  ]
				}

			}
, 			{
				"patchline" : 				{
					"source" : [ "obj-9", 0 ],
					"destination" : [ "obj-4", 1 ],
					"hidden" : 0,
					"midpoints" : [  ]
				}

			}
, 			{
				"patchline" : 				{
					"source" : [ "obj-4", 1 ],
					"destination" : [ "obj-20", 0 ],
					"hidden" : 0,
					"midpoints" : [ 124.5, 242.5, 43.5, 242.5 ]
				}

			}
, 			{
				"patchline" : 				{
					"source" : [ "obj-20", 1 ],
					"destination" : [ "obj-3", 0 ],
					"hidden" : 0,
					"midpoints" : [  ]
				}

			}
, 			{
				"patchline" : 				{
					"source" : [ "obj-18", 0 ],
					"destination" : [ "obj-20", 1 ],
					"hidden" : 0,
					"midpoints" : [  ]
				}

			}
, 			{
				"patchline" : 				{
					"source" : [ "obj-28", 2 ],
					"destination" : [ "obj-19", 0 ],
					"hidden" : 0,
					"midpoints" : [  ]
				}

			}
, 			{
				"patchline" : 				{
					"source" : [ "obj-28", 1 ],
					"destination" : [ "obj-6", 0 ],
					"hidden" : 0,
					"midpoints" : [  ]
				}

			}
, 			{
				"patchline" : 				{
					"source" : [ "obj-28", 0 ],
					"destination" : [ "obj-4", 0 ],
					"hidden" : 0,
					"midpoints" : [  ]
				}

			}
, 			{
				"patchline" : 				{
					"source" : [ "obj-1", 0 ],
					"destination" : [ "obj-28", 0 ],
					"hidden" : 0,
					"midpoints" : [  ]
				}

			}
 ]
	}

}
